# xmcd
# 
# Track frame offsets:
#     150
#     21386
#     47665
#     69928
#     90402
#     109351
#     125486
# 
# Disc length: 2047
# 
# Revision: 0
# Processed by: cddbd v1.5.2PL0 Copyright (c) Steve Scherf et al.
# Submitted via: fre:ac v1.0.17
# 
DISCID=5807fd07
DTITLE=Pond - Hobo Rocket
DYEAR=0
DGENRE=Psychedelic
TTITLE0=Whatever Happened to the Million Head Collide?
TTITLE1=Xanman
TTITLE2=O Dharma
TTITLE3=Aloneaflameaflower
TTITLE4=Giant Tortoise
TTITLE5=Hobo Rocket
TTITLE6=Midnight Mass [At the Market St. Payphone]
EXTD=
EXTT0=
EXTT1=
EXTT2=
EXTT3=
EXTT4=
EXTT5=
EXTT6=
PLAYORDER=
